<svg width="200" height="200" viewBox="0 0 200 200" fill="none" xmlns="http://www.w3.org/2000/svg">
<path d="M60.0608 158.138L50.0627 157.936L54.1023 153.594L44.8114 153.594L49.5578 148.847L41.2765 148.847L45.6191 144.505L37.7418 144.505L42.4884 139.758L35.0151 139.758L39.2567 135.517L32.3893 135.517L36.631 130.366L29.5616 130.366L35.0151 125.721L26.4309 123.196L32.3893 119.762L25.118 114.712L30.3695 110.067L24.0071 108.148L29.5616 104.613L23.4012 101.988L29.5616 98.7559L23.4012 95.0193L30.3695 94.3124L24.0071 87.95L30.3695 87.95L25.118 82.6984L31.4804 82.6984L26.4309 77.6489L33.3992 77.6489L28.4507 72.7004L35.0151 72.7004L30.3695 68.0548L36.631 68.0548L32.3893 63.8132L39.2567 63.8132L35.0151 59.5716L42.4884 59.5716L38.3478 54.825L45.6191 54.825L41.6805 50.4824L49.5578 50.4824L46.427 45.2309L54.3043 46.5438L52.6885 39.6764L60.0608 41.7972L58.5459 35.4348L64.8073 38.8685L64.8073 31.6982L69.3519 36.2428L69.3519 29.5774C70.6648 31.3615 73.2906 34.5259 73.2906 34.5259L73.2906 27.5576L79.047 32.8091L80.5619 25.3358L85.7124 30.1833L89.0451 23.5179L92.3778 30.1833L96.6194 23.5179L98.7402 29.5774L102.78 23.5179L105.507 29.5774L110.758 23.5179L112.677 30.1833L117.524 25.3358L117.524 31.6982L122.473 26.2447L122.473 32.8091L127.724 27.5576L127.724 35.4348L134.087 30.6883L134.087 37.5556L139.944 34.122L139.944 41.7972L147.418 38.8685L145.802 46.4428L152.669 43.5141L150.447 50.4824L157.82 48.4626L153.578 54.825L161.152 53.2092L157.82 59.5716L164.99 58.1577L161.152 64.8231L168.828 64.8231L163.677 69.9737L171.049 70.7815L166.404 75.6291L174.382 78.2548L168.828 82.7994L175.695 85.9301L170.141 90.9797L177.008 95.1203L171.049 97.847L177.008 102.089L171.049 103.805L177.008 109.764L170.141 109.764L175.695 115.318L168.828 115.318L174.382 120.873L167.717 120.873L172.564 125.721L166.404 125.721L171.049 130.366L163.677 130.366L167.111 138.142L160.041 137.536L162.566 145.212L155.295 144.202L157.82 151.574L151.861 148.847L151.861 156.624L147.317 152.483L147.317 161.168L142.772 156.624L142.772 164.097L137.723 159.956L137.723 167.531L132.976 162.784L132.37 170.257L127.724 165.006L125.301 172.883L121.059 167.531L117.827 175.004L111.97 169.348L108.132 176.721L104.396 170.257L99.6491 176.721L96.0134 170.257L91.2669 176.115L91.0649 170.257L85.7124 175.61L85.7124 168.742L80.1579 174.297L80.1579 167.531L73.2905 171.974L73.2905 165.41L67.0291 168.742L67.0291 162.784L59.5558 165.006L60.0608 158.138ZM60.0608 158.138L55.6172 162.784" stroke="black" stroke-width="0.5"/>
<path d="M151.393 51.5897L149.7 41.7526L146.018 46.3881L144.63 37.2187L140.655 42.612L139.417 34.4392L135.78 39.3737L134.604 31.5995L130.628 36.993L129.512 29.6175L125.96 34.4372L124.934 27.6598L120.484 32.6153L119.428 25.6384L115.658 31.7146L111.884 23.6199L109.386 30.0133L103.316 23.5915L99.5157 29.4683L96.6716 23.4758L94.013 29.4856L90.5013 23.7981L88.2323 30.3607L83.6243 24.8391L83.9677 31.8218L76.7382 26.4931L77.6887 32.7723L71.7214 28.374L72.6719 34.6532L66.9342 30.4241L67.9753 37.3012L62.3523 33.1567L63.333 39.6352L58.0543 35.7444L58.9897 41.9239L54.17 38.3715L55.196 45.149L50.3763 41.5965L51.4928 48.972L46.1898 45.5947L47.2761 52.7709L42.402 49.5325L43.5788 57.3067L37.9284 55.0015L40.4009 62.5795L33.3822 62.0107L36.5766 68.9698L30.0712 68.4252L34.3953 74.0917L27.319 75.1629L32.4829 78.9691L25.9049 79.9649C27.8618 80.994 31.377 83.1127 31.377 83.1127L24.5 84.1537L30.5426 89.0503L23.3936 91.6618L28.947 96.0207L22.8669 100.306L29.9428 102.599L23.9984 107.781L30.2953 108.969L24.9188 113.861L31.3061 115.646L26.1107 121.734L32.9753 122.632L28.9155 128.141L35.1945 127.19L30.5518 132.889L37.0301 131.908L32.632 137.875L40.406 136.699L36.6721 143.687L43.4495 142.661L40.9359 148.955L48.5106 147.808L46.7367 155.621L53.9703 152.895L52.1059 160.11L58.651 156.876L57.759 164.454L63.4044 159.317L62.9412 167.034L68.7224 162.794L68.3982 170.082L74.403 165.299L75.5496 172.874L79.8632 167.021L81.7618 174.176L85.8518 168.867L89.6351 176.349L93.2903 170.188L97.4059 176.498L101.559 170.262L106.672 176.421L108.473 170.133L113.549 175.38L114.353 169.243L121.123 174.233L120.097 167.456L126.409 172.108L125.383 165.33L131.694 169.982L130.699 163.404L136.207 167.464L135.287 161.384L140.565 165.275L139.464 157.999L147.651 160.226L145.997 153.34L153.949 154.685L151.866 147.66L159.519 149.05L155.938 143.577L163.612 142.415L158.847 138.549L167.418 137.251L162.254 133.445L169.63 132.329L164.789 127.964L172.264 126.832L166.87 122.857L174.155 121.142L168.279 117.342L175.691 113.773L169.775 110.387L176.667 106.081L170.211 101.145L176.913 96.2562L169.976 93.534L175.646 87.884L168.724 85.2614L173.795 79.702L167.985 80.3777L172.467 74.2956L165.69 75.3215L170.342 69.0099L163.664 70.0207L167.024 62.5794L160.545 63.5601L162.899 56.8827L157.018 57.7728L158.095 50.0654L151.393 51.5897ZM151.393 51.5897L155.314 46.5102" stroke="black" stroke-width="0.5"/>
<path d="M69.6763 163.693L59.7699 165.059L63.0798 160.138L53.9035 161.592L57.8482 156.161L49.6691 157.458L53.2783 152.489L45.4982 153.722L49.4431 148.291L42.062 149.461L45.5872 144.607L38.8045 145.683L42.1875 139.931L35.2053 141.038L39.8643 135.596L30.9906 134.446L36.3381 130.122L28.3658 126.273L32.8253 120.863L26.241 119.964L31.1736 115.603L24.678 113.974L30.2566 109.818L23.5871 107.092L30.3589 105.303L23.0788 100.015L29.3628 99.0186L23.3539 94.6539L29.6378 93.6579L23.86 89.4611L30.7425 88.3702L25.0802 84.2574L31.5637 83.2297L26.2481 79.3687L32.4323 78.3885L27.579 74.8632L34.3617 73.7881L29.5083 70.2628L36.8895 69.0929L32.0568 65.053L39.2385 63.9147L34.6686 60.2422L42.4487 59.009L38.5344 54.3124L46.5201 54.3758L43.8491 47.8461L51.4625 48.7866L48.9703 42.7398L55.692 45.1509L54.5695 38.069L59.7695 41.8461L58.726 35.2629C60.302 36.8195 63.3908 39.5338 63.3908 39.5338L62.2999 32.6514L68.8075 36.9369L69.1337 29.3186L74.9796 33.3L77.2277 26.1951L81.5628 32.2565L84.7086 25.0093L87.7519 30.662L90.7931 24.0448L94.4348 29.6027L98.673 22.7958L101.612 29.0786L105.64 23.5319L106.637 29.8159L110.67 23.6549L111.698 30.1384L116.063 24.1295L117.296 31.9096L122.837 26.2255L123.912 33.0082L129.159 28.6998L130.361 36.2805L137.284 32.2179L136.874 39.9517L143.198 35.984L142.094 43.2143L149.059 40.0652L145.866 47.0132L153.094 44.2315L150.799 51.0372L157.659 48.5182L154.912 55.7022L162.493 54.5006L158.212 60.394L165.62 60.0377L161.791 65.5528L170.082 66.8971L165.307 72.2552L172.58 74.2722L167.885 80.1291L175.316 83.1435L169.858 86.7695L176.407 90.0259L170.79 92.6544L177.608 97.6066L170.825 98.6817L177.181 103.298L170.398 104.373L176.754 108.99L170.171 110.033L175.717 114.062L169.633 115.027L174.949 118.888L167.667 120.042L172.276 127.184L165.199 127.693L168.894 134.878L161.554 135.019L165.202 141.905L158.89 140.145L160.108 147.825L154.971 144.447L156.331 153.025L151.131 149.248L152.301 156.629L146.665 153.33L147.851 160.811L142.42 156.866L142.991 164.342L137.581 159.883L136.42 168.042L131.393 163.42L129.371 171.307L122.7 166.638L120.064 174.521L115.362 168.722L111.686 175.849L107.083 170.034L103.312 176.562L102.195 170.809L97.7468 176.933L96.6717 170.151L92.0553 176.506L90.996 169.823L84.909 175.287L83.8813 168.804L78.2188 173.076L77.286 167.191L70.2527 170.555L69.6763 163.693ZM69.6763 163.693L66.0148 168.977" stroke="black" stroke-width="0.5"/>
<path d="M143.201 44.1598L139.989 34.7091L137.078 39.8639L134.272 31.0249L131.19 36.974L128.689 29.0956L125.869 34.5387L123.49 27.0445L120.408 32.9939L118.15 25.8842L115.396 31.2006L113.322 24.6673L109.703 30.2583L107.568 23.5328L104.796 30.1242L99.8009 22.7202L98.3342 29.426L91.3339 24.0336L88.5007 30.4329L84.7535 24.9595L83.0685 31.3115L78.7098 26.2438L77.4961 33.0807L72.0805 28.3486L73.5129 35.1915L65.5383 31.0603L67.4601 37.1133L60.8778 33.7034L62.7996 39.7563L56.4706 36.4776L58.5754 43.107L52.373 39.8939L54.3558 46.139L48.5331 43.1226L50.4244 49.0794L45.108 46.3253L47.1823 52.8586L41.8659 50.1045L44.1233 57.2143L38.357 54.7088L40.5533 61.6265L35.2324 59.1911L37.6118 66.6852L31.6702 65.293L35.2985 72.3905L28.2773 72.9275L32.5217 79.3007L26.0114 79.7813L31.1693 84.701L24.3479 86.8668L30.044 89.8176L23.703 91.8309C25.7969 92.541 29.6004 94.0832 29.6004 94.0832L22.9712 96.188L29.7059 100.078L23.0539 103.777L29.2213 107.213L23.8869 112.396L31.2346 113.554L26.1748 119.602L32.5799 119.79L28.0356 125.463L34.6237 126.227L30.4455 133.053L37.3661 132.865L34.2187 138.941L40.2714 137.02L36.5781 143.375L42.823 141.392L39.4133 147.974L46.9072 145.595L44.3135 153.081L50.8466 151.007L49.3493 157.617L56.6511 155.299L56.1223 163.293L62.8399 159.468L62.128 166.886L68.0862 162.667L68.3915 170.291L73.1631 164.334L73.9137 172.028L78.9599 166.936L79.7806 174.184L84.9625 168.52L87.2809 175.822L90.625 169.366L93.6204 176.136L96.8289 170.252L101.737 177.049L104.382 170.392L109.435 175.98L112.561 169.17L118.575 174.453L119.369 167.961L125.204 172.348L125.037 166.161L132.506 170.03L130.431 163.497L137.393 167.103L135.319 160.57L142.281 164.176L140.267 157.835L146.344 160.983L144.483 155.122L150.305 158.138L148.079 151.125L156.513 152.043L153.802 145.5L161.866 145.584L158.709 138.971L166.485 139.146L162.091 134.301L169.489 131.952L164.177 128.88L172.44 126.256L166.744 123.305L173.853 121.048L168.389 117.495L175.595 115.207L169.645 112.125L176.572 109.291L170.173 106.458L176.935 101.773L170.561 99.3542L176.695 94.0223L169.545 90.158L175.4 84.2803L168.122 82.6776L172.837 76.2097L165.59 74.7032L169.729 68.4182L164.095 69.9953L167.571 63.2865L161.038 65.3608L164.644 58.3987L158.207 60.4425L160.36 52.567L154.115 54.5498L155.394 47.5863L149.726 49.386L149.582 41.6051L143.201 44.1598ZM143.201 44.1598L146.279 38.5292" stroke="black" stroke-width="0.5"/>
<path d="M87.4291 88.7246L60.4682 132.377L101.185 133.087M87.4291 88.7246L101.214 66.5265L139.262 133.752L113.437 133.301L87.4291 88.7246Z" stroke="black" stroke-width="2"/>
</svg>
